<?xml version="1.0" standalone="no"?>
<!DOCTYPE svg PUBLIC "-//W3C//DTD SVG 20010904//EN"
 "http://www.w3.org/TR/2001/REC-SVG-20010904/DTD/svg10.dtd">
<svg version="1.0" xmlns="http://www.w3.org/2000/svg"
 width="560.000000pt" height="382.000000pt" viewBox="0 0 560.000000 382.000000"
 preserveAspectRatio="xMidYMid meet">

<g transform="translate(0.000000,382.000000) scale(0.100000,-0.100000)"
fill="#000000" stroke="none">
<path d="M1852 2328 l3 -933 930 0 930 0 0 930 0 930 -933 3 -932 2 2 -932z
m1002 710 c54 -86 77 -138 74 -166 l-3 -27 85 0 84 0 42 55 c22 30 55 80 71
110 34 60 60 72 113 50 47 -20 45 -38 -14 -123 -31 -44 -53 -84 -50 -88 3 -5
45 -9 94 -9 48 0 95 -3 104 -6 14 -5 16 -28 16 -149 0 -156 0 -155 -60 -155
-56 0 -60 6 -60 85 0 40 -3 80 -6 89 -5 14 -60 16 -508 16 -377 0 -505 -3
-514 -12 -7 -7 -12 -41 -12 -85 0 -61 -3 -74 -19 -83 -26 -14 -74 -13 -89 2
-17 17 -17 269 0 286 8 8 47 12 109 12 61 0 100 4 105 11 3 6 -17 44 -45 85
-28 41 -51 78 -51 84 0 12 59 50 78 50 32 0 157 -169 149 -200 -7 -26 10 -30
134 -30 87 0 111 3 115 15 3 8 -12 53 -35 99 -23 47 -41 91 -41 99 0 17 36 35
73 36 22 1 33 -8 61 -51z m345 -462 c15 -8 33 -22 41 -31 11 -13 9 -19 -11
-41 -34 -37 -152 -116 -251 -167 -60 -32 -83 -49 -83 -63 0 -18 12 -19 286
-24 222 -4 290 -8 302 -19 20 -16 23 -86 5 -98 -7 -4 -143 -10 -303 -13 l-290
-5 -5 -155 c-3 -85 -11 -168 -18 -183 -18 -42 -88 -68 -203 -74 -125 -7 -145
-2 -164 43 -18 44 -19 73 -2 76 6 1 62 2 124 2 61 1 115 5 120 9 10 10 17 229
9 262 l-6 24 -285 3 c-314 3 -305 1 -305 65 0 62 2 63 304 63 198 0 275 3 284
12 7 7 12 26 12 44 0 38 9 46 113 98 45 23 83 47 85 54 3 9 -52 12 -253 12
-158 0 -264 4 -276 10 -26 14 -27 84 -1 99 10 7 152 11 380 11 296 0 368 -3
391 -14z"/>
<path d="M3852 3148 c-9 -9 -12 -229 -12 -927 0 -560 -4 -922 -10 -931 -8 -13
-128 -16 -947 -20 l-938 -5 -3 -36 c-6 -74 -84 -69 1003 -69 872 0 975 2 989
16 14 14 16 117 16 989 0 953 0 975 -19 985 -26 14 -64 13 -79 -2z"/>
<path d="M3578 666 c-31 -29 -77 -62 -102 -75 -45 -22 -62 -51 -31 -51 19 0
91 36 124 61 31 25 178 28 187 4 7 -16 -21 -43 -73 -72 -31 -17 -34 -17 -75 4
-50 26 -66 21 -39 -13 11 -14 18 -31 15 -39 -5 -12 -121 -55 -149 -55 -7 0
-18 -6 -24 -14 -9 -10 -8 -16 4 -26 13 -10 31 -7 104 19 124 44 191 83 262
151 80 76 78 94 -11 98 -93 3 -113 9 -107 32 10 38 -28 27 -85 -24z"/>
<path d="M2090 706 c0 -2 6 -19 14 -37 19 -49 12 -59 -44 -59 -46 0 -50 2 -77
42 -33 49 -71 66 -59 27 21 -68 21 -69 -16 -69 -19 0 -39 -5 -46 -12 -14 -14
-16 -77 -3 -97 11 -17 31 -5 31 19 0 46 18 50 239 50 224 0 220 1 238 -55 15
-46 28 -31 28 33 l0 57 -37 3 c-42 4 -48 18 -22 57 15 23 15 25 -1 32 -18 6
-24 1 -68 -62 -14 -19 -27 -25 -55 -25 -36 0 -39 3 -59 50 -16 37 -27 50 -42
50 -12 0 -21 -2 -21 -4z"/>
<path d="M2823 675 c-21 -20 -65 -52 -98 -72 -75 -45 -71 -41 -57 -55 13 -13
71 10 124 49 27 19 44 23 109 23 49 0 81 -4 85 -12 9 -14 -73 -88 -98 -88 -9
0 -32 9 -52 20 -39 24 -55 13 -32 -22 8 -13 12 -28 8 -35 -8 -13 -117 -53
-144 -53 -22 0 -35 -27 -20 -42 13 -13 115 19 222 70 89 42 203 144 198 177
-3 18 -11 20 -78 23 -76 3 -105 15 -96 39 10 26 -33 13 -71 -22z"/>
<path d="M1957 484 c-17 -18 14 -24 114 -24 62 0 109 -4 109 -9 0 -6 -16 -22
-35 -36 -19 -15 -37 -35 -40 -46 -6 -17 -17 -19 -118 -20 -125 0 -151 -6 -137
-29 7 -11 37 -16 127 -20 l118 -5 3 -53 c4 -64 -7 -80 -56 -84 -26 -2 -38 -8
-40 -20 -3 -16 5 -18 56 -18 40 0 64 5 72 15 7 8 15 47 19 87 l6 73 123 5 c94
4 125 8 132 20 14 23 -12 29 -142 29 -65 1 -118 5 -118 9 0 13 30 37 70 57 44
22 81 55 74 66 -6 10 -327 12 -337 3z"/>
<path d="M2920 435 c-32 -30 -91 -70 -130 -90 -65 -33 -92 -65 -55 -65 18 0
102 41 155 75 60 40 200 46 200 9 0 -31 -92 -106 -118 -97 -10 4 -30 17 -45
30 -16 13 -33 23 -38 23 -16 0 -9 -33 12 -56 l21 -22 -24 -16 c-30 -20 -101
-41 -188 -56 -62 -11 -85 -24 -74 -42 16 -25 220 24 334 80 114 56 220 171
195 211 -3 6 -36 11 -73 11 -73 0 -98 10 -89 33 3 9 -1 18 -9 21 -9 3 -38 -16
-74 -49z"/>
<path d="M3688 436 c-32 -29 -89 -68 -127 -87 -46 -22 -70 -40 -70 -51 -1 -10
5 -18 13 -18 20 0 103 40 155 75 39 26 53 30 117 30 40 0 75 -3 79 -7 14 -14
-7 -45 -55 -82 l-51 -39 -44 32 c-66 48 -87 39 -40 -18 l26 -30 -24 -15 c-31
-21 -105 -43 -194 -57 -60 -10 -73 -15 -73 -30 0 -27 47 -25 164 5 170 45 314
135 362 228 23 44 6 57 -79 60 -64 3 -72 5 -72 23 0 18 -12 35 -25 34 -3 0
-31 -24 -62 -53z"/>
</g>
</svg>
