<?xml version="1.0" standalone="no"?>
<!DOCTYPE svg PUBLIC "-//W3C//DTD SVG 20010904//EN"
 "http://www.w3.org/TR/2001/REC-SVG-20010904/DTD/svg10.dtd">
<svg version="1.0" xmlns="http://www.w3.org/2000/svg"
 width="368.000000pt" height="250.000000pt" viewBox="0 0 368.000000 250.000000"
 preserveAspectRatio="xMidYMid meet">

<g transform="translate(0.000000,250.000000) scale(0.100000,-0.100000)"
fill="#000000" stroke="none">
<path d="M3675 1250 c0 -690 1 -973 2 -627 2 345 2 909 0 1255 -1 345 -2 62
-2 -628z"/>
<path d="M1340 1515 l0 -405 405 0 405 0 0 405 0 405 -405 0 -405 0 0 -405z
m445 298 c14 -21 25 -46 25 -55 0 -14 8 -18 38 -18 31 0 41 6 59 33 12 17 25
40 29 50 7 20 34 23 52 5 9 -9 6 -19 -13 -44 -14 -18 -25 -35 -25 -38 0 -3 21
-6 48 -8 l47 -3 3 -62 3 -63 -31 0 c-28 0 -30 2 -30 40 l0 40 -222 -2 -223 -3
-3 -37 c-3 -33 -7 -38 -28 -38 -24 0 -25 2 -22 63 l3 62 48 3 c26 2 47 6 47 9
0 3 -11 21 -25 39 -25 32 -25 33 -6 44 11 5 22 10 24 10 11 0 66 -83 61 -92
-3 -4 22 -8 55 -8 l61 0 -22 46 c-19 39 -20 46 -8 54 23 15 28 13 55 -27z
m155 -197 c9 -12 4 -21 -32 -46 -24 -18 -60 -41 -82 -52 -22 -11 -35 -23 -30
-28 5 -5 66 -11 134 -12 117 -3 125 -4 125 -23 0 -19 -8 -20 -130 -25 l-130
-5 -3 -70 c-3 -89 -19 -105 -102 -105 -44 0 -59 4 -64 16 -11 29 -6 33 52 36
l57 3 0 60 0 60 -127 3 -128 3 0 24 0 24 128 3 c123 3 127 4 130 25 2 16 18
30 50 45 l47 23 -120 3 c-122 3 -142 8 -132 36 9 23 338 24 357 2z"/>
<path d="M2207 1874 c-4 -4 -7 -189 -7 -411 l0 -403 -411 0 -410 0 3 -22 3
-23 430 0 430 0 0 430 c0 380 -2 430 -15 433 -9 1 -19 0 -23 -4z"/>
<path d="M1456 795 c5 -21 3 -25 -18 -25 -13 0 -29 9 -36 20 -7 11 -16 20 -21
20 -5 0 -7 -9 -4 -20 4 -15 0 -20 -16 -20 -14 0 -21 -6 -21 -19 0 -27 17 -35
23 -11 5 18 14 20 95 20 83 0 92 -2 106 -22 l16 -22 0 27 c0 18 -5 27 -16 27
-11 0 -15 6 -11 20 3 11 1 20 -4 20 -5 0 -14 -9 -21 -20 -18 -28 -45 -25 -52
5 -4 14 -11 25 -16 25 -6 0 -8 -11 -4 -25z"/>
<path d="M1737 785 c-51 -37 -51 -56 1 -24 32 18 82 25 95 13 3 -4 -5 -16 -19
-27 -19 -14 -28 -17 -37 -8 -17 17 -26 13 -20 -8 4 -16 -2 -21 -31 -26 -37 -7
-53 -19 -38 -29 14 -8 123 42 153 70 41 39 37 54 -12 54 -24 0 -38 4 -34 10
11 17 -9 9 -58 -25z"/>
<path d="M2080 790 c-19 -17 -40 -30 -48 -30 -7 0 -10 -4 -7 -10 4 -6 21 -2
45 10 40 20 100 27 100 11 0 -17 -46 -40 -61 -30 -21 13 -28 11 -22 -9 3 -14
-5 -21 -37 -31 -22 -6 -38 -16 -35 -21 11 -17 114 27 158 68 39 37 35 52 -14
52 -24 0 -38 4 -34 10 12 19 -10 9 -45 -20z"/>
<path d="M1439 713 l53 -4 -23 -25 c-18 -20 -32 -24 -76 -24 -29 0 -53 -4 -53
-10 0 -5 25 -10 55 -10 54 0 55 0 55 -30 0 -23 -4 -30 -20 -30 -11 0 -20 -5
-20 -11 0 -6 12 -9 28 -7 23 3 27 8 30 41 l3 37 54 0 c30 0 57 5 60 10 4 6
-17 10 -57 10 -68 1 -68 -1 -3 45 18 12 11 14 -60 13 -61 -1 -67 -3 -26 -5z"/>
<path d="M1801 696 c-13 -14 -36 -30 -52 -36 -16 -7 -29 -16 -29 -21 0 -14 12
-11 59 16 41 24 101 34 101 17 0 -5 -11 -19 -25 -32 -23 -22 -26 -22 -43 -7
-25 23 -39 21 -18 -2 16 -18 15 -19 -30 -35 -26 -9 -56 -16 -66 -16 -10 0 -18
-5 -18 -11 0 -16 70 -4 132 23 50 21 113 82 103 99 -4 5 -22 9 -41 9 -19 0
-34 5 -34 10 0 17 -15 11 -39 -14z"/>
<path d="M2118 685 c-26 -18 -53 -35 -60 -38 -7 -2 -10 -7 -6 -11 3 -4 29 4
57 18 79 40 143 30 83 -13 -26 -18 -31 -19 -50 -5 -23 16 -30 6 -10 -14 13
-13 -18 -28 -83 -38 -21 -4 -39 -11 -39 -17 0 -14 73 0 132 25 50 21 113 82
103 99 -4 5 -22 9 -41 9 -21 0 -33 4 -29 10 11 17 -9 9 -57 -25z"/>
<path d="M860 455 c-18 -21 -8 -48 20 -55 34 -8 32 -34 -2 -38 -31 -4 -39 -22
-10 -22 51 0 73 71 25 78 -28 4 -31 32 -3 32 11 0 20 5 20 10 0 15 -36 12 -50
-5z"/>
<path d="M1034 410 c1 -68 13 -82 54 -64 13 6 11 8 -13 13 -28 6 -30 10 -36
61 l-6 55 1 -65z"/>
<path d="M1210 450 c-23 -23 -25 -39 -9 -74 16 -34 56 -42 88 -18 33 24 38 61
11 90 -26 27 -64 28 -90 2z m78 -12 c28 -28 7 -78 -33 -78 -27 0 -45 18 -45
45 0 27 18 45 45 45 12 0 26 -5 33 -12z"/>
<path d="M1440 448 c-11 -12 -20 -32 -20 -44 0 -26 46 -66 69 -62 22 4 27 46
6 54 -21 8 -33 -5 -15 -16 8 -5 11 -12 7 -17 -15 -14 -42 14 -42 43 0 20 7 32
23 40 33 17 38 24 14 24 -12 0 -30 -10 -42 -22z"/>
<path d="M1636 419 c-22 -73 -21 -90 4 -59 l20 25 20 -25 c23 -30 25 -16 7 54
-7 27 -18 51 -24 53 -7 3 -19 -18 -27 -48z m30 -16 c-10 -10 -19 5 -10 18 6
11 8 11 12 0 2 -7 1 -15 -2 -18z"/>
<path d="M1810 405 c0 -37 4 -65 10 -65 6 0 10 20 10 45 0 25 3 45 8 45 10 0
33 -38 43 -70 5 -17 7 -2 7 45 0 39 -3 60 -5 48 -5 -28 -19 -29 -35 -3 -25 39
-38 24 -38 -45z"/>
<path d="M2120 404 c0 -41 4 -63 10 -59 6 3 10 17 10 31 0 38 37 32 49 -8 8
-28 9 -23 9 37 0 61 -1 66 -9 37 -12 -41 -42 -41 -47 1 -6 53 -22 26 -22 -39z"/>
<path d="M2310 405 l0 -65 29 0 c17 0 33 5 36 10 4 6 -5 10 -19 10 -34 0 -37
37 -3 43 l22 4 -22 2 c-30 1 -33 41 -4 41 11 0 23 5 26 10 4 6 -8 10 -29 10
l-36 0 0 -65z"/>
<path d="M2480 410 c0 -33 4 -60 10 -60 6 0 10 11 10 25 0 35 23 31 43 -7 l18
-33 -6 33 c-2 19 0 42 5 52 13 25 -12 50 -51 50 -29 0 -29 0 -29 -60z m66 29
c7 -12 -15 -31 -31 -26 -5 2 -11 11 -13 20 -4 19 32 24 44 6z"/>
<path d="M2672 408 c3 -63 3 -63 36 -66 18 -2 32 1 32 7 0 6 -11 11 -25 11
-31 0 -34 27 -3 39 l22 8 -22 5 c-31 8 -29 38 3 38 14 0 25 5 25 10 0 6 -16
10 -35 10 l-36 0 3 -62z"/>
</g>
</svg>
